<?xml version="1.0" encoding="UTF-8"?>
<svg width="1600px" height="1171px" viewBox="0 0 1600 1171" version="1.1" xmlns="http://www.w3.org/2000/svg" xmlns:xlink="http://www.w3.org/1999/xlink">
    <!-- Generator: Sketch 59 (86127) - https://sketch.com -->
    <title>Rhône</title>
    <desc>Created with Sketch.</desc>
    <g id="Patterns" stroke="none" stroke-width="1" fill="none" fill-rule="evenodd">
        <g id="Rhône" fill-rule="nonzero">
            <g transform="translate(-127.000000, -126.000000)">
                <path d="M833,296 L833,296 C697.687941,296 588,186.312059 588,51 L588,51 L833,51 L833,296 Z" id="Shape-Copy-10" fill="#5E72E4" transform="translate(710.500000, 173.500000) rotate(-49.000000) translate(-710.500000, -173.500000) "></path>
                <path d="M0,126 C132.397954,126 239.729763,233.33181 239.729763,365.729763 L0,365.729763 L0,126 Z" id="Shape" fill="#11CDEF" transform="translate(119.864882, 245.864882) rotate(-270.000000) translate(-119.864882, -245.864882) "></path>
                <path d="M930,126 C974.1824,126 1010,161.8176 1010,206 C1010,250.1824 974.1824,286 930,286 C885.8176,286 850,250.1824 850,206 C850,161.8176 885.8176,126 930,126 Z" id="Shape-Copy-5" fill="#172B4D" transform="translate(930.000000, 206.000000) scale(-1, -1) rotate(-90.000000) translate(-930.000000, -206.000000) "></path>
                <path d="M414,126 C546.397954,126 653.729763,233.33181 653.729763,365.729763 L414,365.729763 L414,126 Z" id="Shape-Copy-4" fill="#11CDEF" transform="translate(533.864882, 245.864882) rotate(-270.000000) translate(-533.864882, -245.864882) "></path>
                <path d="M247.058248,849.322561 L247.058248,729.45768 C247.058248,663.258703 193.392343,609.592798 127.193366,609.592798 L127.193366,609.592798 L127.193366,729.45768 C127.193366,795.656656 180.859271,849.322561 247.058248,849.322561 L247.058248,849.322561 Z" id="Shape" fill="#172B4D"></path>
                <path d="M1680.98172,247.189358 L1561.11684,247.189358 C1494.91786,247.189358 1441.25196,300.855263 1441.25196,367.05424 L1441.25196,367.05424 L1561.11684,367.05424 C1627.31581,367.05424 1680.98172,313.388335 1680.98172,247.189358 L1680.98172,247.189358 Z" id="Shape" fill="#172B4D"></path>
                <path d="M1349.32077,171.776979 L1229.45589,171.776979 C1163.25692,171.776979 1109.59101,225.442884 1109.59101,291.641861 L1109.59101,291.641861 L1229.45589,291.641861 C1295.65487,291.641861 1349.32077,237.975956 1349.32077,171.776979 L1349.32077,171.776979 Z" id="Shape-Copy" fill="#172B4D" transform="translate(1229.455893, 231.709420) rotate(-12.000000) translate(-1229.455893, -231.709420) "></path>
                <path d="M1681.72976,366 L1561.86488,366 C1495.6659,366 1442,419.665425 1442,485.864882 L1442,485.864882 L1561.86488,485.864882 C1628.06386,485.864882 1681.72976,432.199456 1681.72976,366 L1681.72976,366 Z" id="Shape" fill="#F0F1F1" transform="translate(1561.864882, 425.932441) scale(1, -1) translate(-1561.864882, -425.932441) "></path>
                <path d="M1532,127 L1320.5,127 C1203.69278,127 1109,180.665425 1109,246.864882 L1109,246.864882 L1320.5,246.864882 C1437.30722,246.864882 1532,193.199456 1532,127 L1532,127 Z" id="Shape-Copy-6" fill="#172B4D" transform="translate(1320.500000, 186.932441) scale(1, -1) translate(-1320.500000, -186.932441) "></path>
                <path d="M1407.5,107 C1442.0175,107 1470,134.9825 1470,169.5 C1470,204.0175 1442.0175,232 1407.5,232 C1372.9825,232 1345,204.0175 1345,169.5 C1345,134.9825 1372.9825,107 1407.5,107 Z" id="Shape-Copy-11" fill="#FFFFFF" transform="translate(1407.500000, 169.500000) scale(-1, -1) rotate(-90.000000) translate(-1407.500000, -169.500000) "></path>
                <path d="M1486.5,127 C1521.0175,127 1549,154.9825 1549,189.5 C1549,224.0175 1521.0175,252 1486.5,252 C1451.9825,252 1424,224.0175 1424,189.5 C1424,154.9825 1451.9825,127 1486.5,127 Z" id="Shape-Copy-9" fill="#172B4D" transform="translate(1486.500000, 189.500000) scale(-1, -1) rotate(-90.000000) translate(-1486.500000, -189.500000) "></path>
                <path d="M962.859654,126 L842.994772,126 C776.795795,126 723.12989,179.665425 723.12989,245.864882 L723.12989,245.864882 L842.994772,245.864882 C909.193749,245.864882 962.859654,192.199456 962.859654,126 L962.859654,126 Z" id="Shape-Copy-2" fill="#F0F1F1"></path>
                <path d="M1777.72976,245.864882 L1657.86488,245.864882 C1591.6659,245.864882 1538,192.199472 1538,126 L1538,126 L1657.86488,126 C1724.06386,126 1777.72976,179.665445 1777.72976,245.864882 L1777.72976,245.864882 Z" id="Shape" fill="#F0F1F1"></path>
                <path d="M211.330203,1131.55101 L331.220763,1131.57121 C397.43392,1131.58235 451.102149,1078.67776 451.090838,1013.40673 L451.090838,1013.40673 L331.200279,1013.38654 C264.987122,1013.37539 211.318892,1066.27999 211.330203,1131.55101 L211.330203,1131.55101 Z" id="Shape" fill="#172B4D" transform="translate(331.210521, 1072.478873) scale(1, -1) rotate(-212.000000) translate(-331.210521, -1072.478873) "></path>
                <path d="M413.696401,126 L413.696401,245.258913 C413.696401,311.792554 467.362305,365.729763 533.561282,365.729763 L533.561282,365.729763 L533.561282,246.47085 C533.561282,179.9348 479.895377,126 413.696401,126 L413.696401,126 Z" id="Shape" fill="#172B4D"></path>
                <path d="M414.455293,126 L414.455293,365.729763 C414.455293,498.127717 307.123484,605.459526 174.72553,605.459526 L174.72553,605.459526 L174.72553,365.729763 C174.72553,233.33181 282.05734,126 414.455293,126 L414.455293,126 Z" id="Shape" fill="#F0F1F1"></path>
                <path d="M247.058248,370.896353 L247.058248,490.155266 C247.058248,556.688907 193.392343,610.626116 127.193366,610.626116 L127.193366,610.626116 L127.193366,491.367203 C127.193366,424.831152 180.859271,370.896353 247.058248,370.896353 L247.058248,370.896353 Z" id="Shape" fill="#5E72E4"></path>
                <path d="M482.654739,900.988458 L363.395826,900.988458 C296.862185,900.988458 242.924976,954.654363 242.924976,1020.85334 L242.924976,1020.85334 L362.183889,1020.85334 C428.71994,1020.85334 482.654739,967.187435 482.654739,900.988458 L482.654739,900.988458 Z" id="Shape" fill="#11CDEF"></path>
                <path d="M505.790297,1120.55399 L563.58739,1120.55399 C595.831949,1120.55399 621.971831,1146.56239 621.971831,1178.64476 L621.971831,1178.64476 L564.174738,1178.64476 C531.929011,1178.64476 505.790297,1152.63636 505.790297,1120.55399 L505.790297,1120.55399 Z" id="Shape" fill="#F5365C" transform="translate(563.881064, 1149.599374) rotate(33.000000) translate(-563.881064, -1149.599374) "></path>
                <path d="M1543.91155,1286.21101 L1543.91155,1166.95089 C1543.91155,1100.41792 1597.57745,1046.48125 1663.77643,1046.48125 L1663.77643,1046.48125 L1663.77643,1165.74138 C1663.77643,1232.27435 1610.11053,1286.21101 1543.91155,1286.21101 L1543.91155,1286.21101 Z" id="Shape" fill="#172B4D" transform="translate(1603.843989, 1166.346133) rotate(35.000000) translate(-1603.843989, -1166.346133) "></path>
                <path d="M1515.97268,1010.0035 C1515.97268,970.339747 1548.12453,938.187904 1587.78828,938.187904 L1587.78828,938.187904 C1627.45204,938.187904 1659.60388,970.339747 1659.60388,1010.0035 L1659.60388,1010.0035 C1659.60388,1049.66726 1627.45204,1081.8191 1587.78828,1081.8191 L1587.78828,1081.8191 C1548.12453,1081.8191 1515.97268,1049.66726 1515.97268,1010.0035 L1515.97268,1010.0035 Z" id="Shape" fill="#11CDEF"></path>
                <path d="M1552.13881,1010.0035 C1552.13881,990.315488 1568.10027,974.354032 1587.78828,974.354032 L1587.78828,974.354032 C1607.47629,974.354032 1623.43775,990.315488 1623.43775,1010.0035 L1623.43775,1010.0035 C1623.43775,1029.69152 1607.47629,1045.65297 1587.78828,1045.65297 L1587.78828,1045.65297 C1568.10027,1045.65297 1552.13881,1029.69152 1552.13881,1010.0035 L1552.13881,1010.0035 Z" id="Shape" fill="#F0F1F1"></path>
                <path d="M1347.54186,1046.16963 C1347.54186,1026.48162 1363.50331,1010.52016 1383.19133,1010.52016 L1383.19133,1010.52016 C1402.87934,1010.52016 1418.8408,1026.48162 1418.8408,1046.16963 L1418.8408,1046.16963 C1418.8408,1065.85764 1402.87934,1081.8191 1383.19133,1081.8191 L1383.19133,1081.8191 C1363.50331,1081.8191 1347.54186,1065.85764 1347.54186,1046.16963 L1347.54186,1046.16963 Z" id="Shape" fill="#11CDEF"></path>
                <path d="M1621.37111,888.071984 C1621.37111,868.383971 1637.33257,852.422515 1657.02058,852.422515 L1657.02058,852.422515 C1676.7086,852.422515 1692.67005,868.383971 1692.67005,888.071984 L1692.67005,888.071984 C1692.67005,907.759998 1676.7086,923.721453 1657.02058,923.721453 L1657.02058,923.721453 C1637.33257,923.721453 1621.37111,907.759998 1621.37111,888.071984 L1621.37111,888.071984 Z" id="Shape" fill="#F5365C"></path>
                <path d="M639,306.649469 C639,286.961456 654.961456,271 674.649469,271 L674.649469,271 C694.337483,271 710.298938,286.961456 710.298938,306.649469 L710.298938,306.649469 C710.298938,326.337483 694.337483,342.298938 674.649469,342.298938 L674.649469,342.298938 C654.961456,342.298938 639,326.337483 639,306.649469 L639,306.649469 Z" id="Shape-Copy-7" fill="#F0F1F1"></path>
                <path d="M1568,366.649469 C1568,346.961456 1583.96146,331 1603.64947,331 L1603.64947,331 C1623.33748,331 1639.29894,346.961456 1639.29894,366.649469 L1639.29894,366.649469 C1639.29894,386.337483 1623.33748,402.298938 1603.64947,402.298938 L1603.64947,402.298938 C1583.96146,402.298938 1568,386.337483 1568,366.649469 L1568,366.649469 Z" id="Shape" fill="#5E72E4"></path>
                <path d="M198.492304,1001.73696 C198.492304,1021.42497 182.531562,1037.38643 162.842835,1037.38643 L162.842835,1037.38643 C143.154109,1037.38643 127.193366,1021.42497 127.193366,1001.73696 L127.193366,1001.73696 C127.193366,982.048945 143.154109,966.087489 162.842835,966.087489 L162.842835,966.087489 C182.531562,966.087489 198.492304,982.048945 198.492304,1001.73696 L198.492304,1001.73696 Z" id="Shape" fill="#11CDEF"></path>
                <path d="M1747.72976,722.729763 L1747.72976,722.729763 C1615.33181,722.729763 1508,615.397954 1508,483 L1508,483 L1747.72976,483 L1747.72976,722.729763 Z" id="Shape" fill="#F0F1F1" transform="translate(1627.864882, 602.864882) scale(-1, -1) rotate(-180.000000) translate(-1627.864882, -602.864882) "></path>
                <path d="M211.925438,907.705025 C211.925438,927.393039 195.964695,943.354494 176.275969,943.354494 L176.275969,943.354494 C156.587242,943.354494 140.626499,927.393039 140.626499,907.705025 L140.626499,907.705025 C140.626499,888.017012 156.587242,872.055556 176.275969,872.055556 L176.275969,872.055556 C195.964695,872.055556 211.925438,888.017012 211.925438,907.705025 L211.925438,907.705025 Z" id="Shape" fill="#F5365C"></path>
                <path d="M1657,924.032856 C1657,906.341228 1671.34123,892 1689.03286,892 C1706.72448,892 1721.06571,906.341228 1721.06571,924.032856 C1721.06571,941.724484 1706.72448,956.065713 1689.03286,956.065713 C1671.34123,956.065713 1657,941.724484 1657,924.032856 Z" id="Shape" fill="#11CDEF"></path>
                <path d="M281.15774,855.522469 C281.15774,837.830841 295.499443,823.489613 313.190596,823.489613 L313.190596,823.489613 C330.88175,823.489613 345.223452,837.830841 345.223452,855.522469 L345.223452,855.522469 C345.223452,873.214097 330.88175,887.555325 313.190596,887.555325 L313.190596,887.555325 C295.499443,887.555325 281.15774,873.214097 281.15774,855.522469 L281.15774,855.522469 Z" id="Shape" fill="#11CDEF"></path>
                <path d="M251,175.032856 C251,157.341228 265.341703,143 283.032856,143 L283.032856,143 C300.72401,143 315.065713,157.341228 315.065713,175.032856 L315.065713,175.032856 C315.065713,192.724484 300.72401,207.065713 283.032856,207.065713 L283.032856,207.065713 C265.341703,207.065713 251,192.724484 251,175.032856 L251,175.032856 Z" id="Shape-Copy-8" fill="#11CDEF"></path>
                <path d="M1744.99815,759.997873 C1744.99815,725.757871 1717.24028,698 1682.99787,698 L1682.99787,698 C1648.75787,698 1621,725.757871 1621,759.997873 L1621,759.997873 C1621,794.240283 1648.75787,821.998153 1682.99787,821.998153 L1744.99815,821.998153 L1744.99815,759.997873 Z" id="Shape" fill="#F0F1F1" transform="translate(1682.999077, 759.999077) scale(-1, 1) translate(-1682.999077, -759.999077) "></path>
                <path d="M1442,206 C1442,154.08568 1399.91432,112 1348,112 L1348,112 C1296.08568,112 1254,154.08568 1254,206 L1254,206 C1254,257.91432 1296.08568,300 1348,300 L1442,300 L1442,206 Z" id="Shape" fill="#5E72E4"></path>
                <path d="M1531.99815,245.997873 C1531.99815,211.757871 1504.24028,184 1469.99787,184 L1469.99787,184 C1435.75787,184 1408,211.757871 1408,245.997873 L1408,245.997873 C1408,280.240283 1435.75787,307.998153 1469.99787,307.998153 L1531.99815,307.998153 L1531.99815,245.997873 Z" id="Shape" fill="#11CDEF" transform="translate(1469.999077, 245.999077) scale(1, -1) translate(-1469.999077, -245.999077) "></path>
                <path d="M962.503912,213 C962.503912,261.04836 1001.45555,300 1049.50391,300 L1049.50391,300 C1097.55227,300 1136.50391,261.04836 1136.50391,213 L1136.50391,213 C1136.50391,164.95164 1097.55227,126 1049.50391,126 L962.503912,126 L962.503912,213 Z" id="Shape" fill="#F5365C"></path>
                <path d="M962.503912,183.501116 C962.503912,215.25643 988.247482,241 1020.00503,241 L1020.00503,241 C1051.76034,241 1077.50391,215.25643 1077.50391,183.501116 L1077.50391,183.501116 C1077.50391,151.74357 1051.76034,126 1020.00503,126 L962.503912,126 L962.503912,183.501116 Z" id="Shape" fill="#172B4D"></path>
                <path d="M242,679.5 C242,622.33902 288.33902,576 345.5,576 L345.5,576 C402.66098,576 449,622.33902 449,679.5 L449,679.5 C449,736.66098 402.66098,783 345.5,783 L345.5,783 C288.33902,783 242,736.66098 242,679.5 L242,679.5 Z" id="Shape" fill="#F0F1F1"></path>
                <path d="M288,679.5 C288,647.744384 313.744384,622 345.5,622 L345.5,622 C377.255616,622 403,647.744384 403,679.5 L403,679.5 C403,711.255616 377.255616,737 345.5,737 L345.5,737 C313.744384,737 288,711.255616 288,679.5 L288,679.5 Z" id="Shape" fill="#172B4D"></path>
                <path d="M1742.93152,607.931517 L1742.93152,607.931517 C1675.58946,607.931517 1621,553.34206 1621,486 L1621,486 L1742.93152,486 L1742.93152,607.931517 Z" id="Shape" fill="#5E72E4" transform="translate(1681.965759, 546.965759) scale(-1, 1) rotate(-90.000000) translate(-1681.965759, -546.965759) "></path>
                <path d="M1584.47574,709.505494 C1584.47574,689.817481 1600.4372,673.856025 1620.12521,673.856025 L1620.12521,673.856025 C1639.81323,673.856025 1655.77468,689.817481 1655.77468,709.505494 L1655.77468,709.505494 C1655.77468,729.193508 1639.81323,745.154963 1620.12521,745.154963 L1620.12521,745.154963 C1600.4372,745.154963 1584.47574,729.193508 1584.47574,709.505494 L1584.47574,709.505494 Z" id="Shape" fill="#11CDEF"></path>
                <path d="M1633,411.649469 C1633,391.961456 1648.96146,376 1668.64947,376 L1668.64947,376 C1688.33748,376 1704.29894,391.961456 1704.29894,411.649469 L1704.29894,411.649469 C1704.29894,431.337483 1688.33748,447.298938 1668.64947,447.298938 L1668.64947,447.298938 C1648.96146,447.298938 1633,431.337483 1633,411.649469 L1633,411.649469 Z" id="Shape-Copy-3" fill="#11CDEF"></path>
                <path d="M11,1176.86488 C11,1110.6659 64.6659048,1057 130.864882,1057 L130.864882,1057 C197.063858,1057 250.729763,1110.6659 250.729763,1176.86488 L250.729763,1176.86488 C250.729763,1243.06386 197.063858,1296.72976 130.864882,1296.72976 L130.864882,1296.72976 C64.6659048,1296.72976 11,1243.06386 11,1176.86488 L11,1176.86488 Z" id="Shape" fill="#11CDEF" transform="translate(130.864882, 1176.864882) scale(-1, -1) rotate(-90.000000) translate(-130.864882, -1176.864882) "></path>
            </g>
        </g>
    </g>
</svg>